HIERARCHY
ROOT Hips
{
    OFFSET 0.000000 0.000000 0.000000
    CHANNELS 6 Xposition Yposition Zposition Zrotation Xrotation Yrotation
    JOINT Spine
    {
        OFFSET -0.000000 7.236184 0.000000
        CHANNELS 3 Zrotation Xrotation Yrotation
        JOINT Spine1
        {
            OFFSET -0.000000 20.420147 0.000000
            CHANNELS 3 Zrotation Xrotation Yrotation
            JOINT Neck
            {
                OFFSET -0.000000 20.336288 1.848754
                CHANNELS 3 Zrotation Xrotation Yrotation
                JOINT Head
                {
                    OFFSET -0.000000 12.354461 -1.764923
                    CHANNELS 3 Zrotation Xrotation Yrotation
                    End Site
                    {
                        OFFSET -0.000000 22.061537 0.000000
                    }
                }
            }
            JOINT LeftShoulder
            {
                OFFSET 3.573296 18.396038 -0.314103
                CHANNELS 3 Zrotation Xrotation Yrotation
                JOINT LeftArm
                {
                    OFFSET 10.880760 0.000000 0.000000
                    CHANNELS 3 Zrotation Xrotation Yrotation
                    JOINT LeftForeArm
                    {
                        OFFSET 27.185530 0.000000 0.000000
                        CHANNELS 3 Zrotation Xrotation Yrotation
                        JOINT LeftHand
                        {
                            OFFSET 27.825975 0.000000 0.000000
                            CHANNELS 3 Zrotation Xrotation Yrotation
                            End Site
                            {
                                OFFSET 13.236923 0.000000 0.000000
                            }
                        }
                    }
                }
            }
            JOINT RightShoulder
            {
                OFFSET -3.474926 18.396038 -0.314103
                CHANNELS 3 Zrotation Xrotation Yrotation
                JOINT RightArm
                {
                    OFFSET -10.880760 0.000000 0.000000
                    CHANNELS 3 Zrotation Xrotation Yrotation
                    JOINT RightForeArm
                    {
                        OFFSET -27.185530 0.000000 0.000000
                        CHANNELS 3 Zrotation Xrotation Yrotation
                        JOINT RightHand
                        {
                            OFFSET -27.825975 0.000000 0.000000
                            CHANNELS 3 Zrotation Xrotation Yrotation
                            End Site
                            {
                                OFFSET -13.236923 0.000000 0.000000
                            }
                        }
                    }
                }
            }
        }
    }
    JOINT LeftUpLeg
    {
        OFFSET 8.824615 0.000000 0.000000
        CHANNELS 3 Zrotation Xrotation Yrotation
        JOINT LeftLeg
        {
            OFFSET -0.000000 -35.111282 0.000000
            CHANNELS 3 Zrotation Xrotation Yrotation
            JOINT LeftFoot
            {
                OFFSET -0.000000 -42.324711 0.000000
                CHANNELS 3 Zrotation Xrotation Yrotation
                JOINT LeftToeBase
                {
                    OFFSET -0.000000 -5.735999 13.236923
                    CHANNELS 3 Zrotation Xrotation Yrotation
                    End Site
                    {
                        OFFSET -0.000000 0.000000 3.529846
                    }
                }
            }
        }
    }
    JOINT RightUpLeg
    {
        OFFSET -8.824615 0.000000 0.000000
        CHANNELS 3 Zrotation Xrotation Yrotation
        JOINT RightLeg
        {
            OFFSET -0.000000 -35.111282 0.000000
            CHANNELS 3 Zrotation Xrotation Yrotation
            JOINT RightFoot
            {
                OFFSET -0.000000 -42.324711 0.000000
                CHANNELS 3 Zrotation Xrotation Yrotation
                JOINT RightToeBase
                {
                    OFFSET -0.000000 -5.735999 13.236923
                    CHANNELS 3 Zrotation Xrotation Yrotation
                    End Site
                    {
                        OFFSET -0.000000 0.000000 3.529846
                    }
                }
            }
        }
    }
}
MOTION
Frames:    14
Frame Time:    0.008333
-4.304815    84.008003    102.485992    -2.210160    -3.689574    -169.736252    -3.291887    -12.630712    -0.534594    1.144656    12.280833    -0.293266    0.504945    1.972633    -3.192740    5.812708    -8.093744    -2.158994    -0.002271    21.751888    -3.552362    -40.094357    43.357357    -44.160789    3.500862    -4.259003    -17.806637    18.552193    -3.610896    0.618698    10.634403    23.433699    -5.743143    34.660107    43.963634    39.428379    -6.406973    -9.489424    17.634560    -17.152283    -8.384586    -0.819182    3.202154    -7.760646    -7.996334    1.223172    14.184561    1.512563    -8.242345    -7.814082    -12.424253    0.020050    -1.145347    -0.022271    -8.223898    3.960938    -8.257225    1.920644    3.843186    -2.776923    2.027115    -6.178166    -11.618343    -2.183188    -0.516111    2.362919    
-4.295524    84.001556    102.487167    -2.193797    -3.666211    -169.660797    -3.271002    -12.638495    -0.504641    1.115825    12.338742    -0.262845    0.554499    1.951529    -3.226901    5.816562    -8.108845    -2.199620    0.024096    21.739622    -3.554779    -40.362057    43.237930    -43.935421    3.520451    -4.378764    -17.777020    18.524208    -3.723564    0.650716    10.699718    23.407856    -5.781311    34.645687    43.992897    39.403309    -6.407434    -9.570933    17.653017    -17.169437    -8.457623    -0.869303    3.205282    -7.814891    -8.059163    1.233834    14.288145    1.530205    -8.251689    -7.832066    -12.459620    0.016159    -1.161042    -0.017950    -8.189645    3.974068    -8.296777    1.910748    3.886383    -2.779391    2.060036    -6.225457    -11.629425    -2.199049    -0.489566    2.379997    
-4.286493    83.995224    102.488197    -2.177986    -3.643291    -169.586136    -3.250319    -12.645931    -0.475188    1.087393    12.394860    -0.233027    0.602089    1.931001    -3.260703    5.821295    -8.123734    -2.239429    0.048189    21.728123    -3.555786    -40.626625    43.116558    -43.711395    3.539387    -4.498524    -17.748032    18.492636    -3.836282    0.683109    10.763216    23.382776    -5.818278    34.629921    44.024525    39.378735    -6.408956    -9.652544    17.673607    -17.186195    -8.530633    -0.918367    3.208334    -7.867383    -8.122089    1.243490    14.388372    1.549491    -8.260822    -7.849047    -12.495343    0.012490    -1.176481    -0.013875    -8.156316    3.986928    -8.334183    1.901241    3.929295    -2.782169    2.092569    -6.272401    -11.640922    -2.214334    -0.463276    2.396452    
-4.277885    83.989037    102.489021    -2.163148    -3.621079    -169.511917    -3.229941    -12.652876    -0.446114    1.059499    12.448202    -0.203981    0.646330    1.911643    -3.294387    5.827963    -8.138827    -2.278266    0.068423    21.717981    -3.553788    -40.889961    42.991776    -43.486729    3.556899    -4.620630    -17.718592    18.454111    -3.951744    0.715140    10.823869    23.359022    -5.853702    34.611855    44.060734    39.354729    -6.412209    -9.735228    17.698254    -17.202812    -8.604409    -0.965991    3.211147    -7.917664    -8.185746    1.251322    14.483906    1.571495    -8.269548    -7.864508    -12.531826    0.009175    -1.191381    -0.010193    -8.124659    3.999237    -8.367981    1.892480    3.972564    -2.785043    2.124383    -6.319338    -11.654092    -2.228353    -0.437674    2.411538    
-4.270045    83.983131    102.489639    -2.149986    -3.600297    -169.438828    -3.210755    -12.658769    -0.418010    1.033459    12.496432    -0.175845    0.685058    1.894228    -3.327843    5.837115    -8.153629    -2.315647    0.083061    21.710205    -3.548247    -41.152233    42.863228    -43.261211    3.572382    -4.745884    -17.688198    18.406797    -4.071079    0.745431    10.879218    23.337732    -5.887509    34.590546    44.103809    39.332493    -6.418242    -9.819227    17.728350    -17.219011    -8.679017    -1.011905    3.213021    -7.965047    -8.248398    1.257542    14.572927    1.594844    -8.277900    -7.878172    -12.568640    0.006479    -1.205865    -0.007198    -8.095944    4.010120    -8.397183    1.884702    4.016591    -2.788105    2.154233    -6.365781    -11.669078    -2.239832    -0.413836    2.423881    
-4.263300    83.977638    102.490128    -2.139262    -3.581750    -169.367264    -3.193469    -12.663637    -0.391466    1.009502    12.538094    -0.147897    0.717408    1.879272    -3.361173    5.849132    -8.167941    -2.351442    0.091331    21.705730    -3.538621    -41.415077    42.729336    -43.034126    3.584673    -4.875555    -17.655510    18.349724    -4.196048    0.772283    10.928405    23.319609    -5.920406    34.564857    44.155792    39.312767    -6.427752    -9.905116    17.765106    -17.234612    -8.754894    -1.056023    3.213025    -8.009709    -8.307985    1.262400    14.654625    1.617290    -8.285663    -7.890052    -12.605033    0.004507    -1.219352    -0.005008    -8.071714    4.018635    -8.420859    1.878620    4.061748    -2.791381    2.180410    -6.411257    -11.686941    -2.248106    -0.392598    2.432763    
-4.257871    83.972618    102.490486    -2.131494    -3.565844    -169.297058    -3.178495    -12.667445    -0.362792    0.988386    12.572495    -0.123450    0.743811    1.866839    -3.394485    5.863207    -8.181849    -2.386019    0.093309    21.705067    -3.525023    -41.682674    42.588234    -42.802547    3.593592    -5.012336    -17.619331    18.282364    -4.329605    0.794773    10.971574    23.304920    -5.953475    34.533512    44.218456    39.296024    -6.441166    -9.993944    17.809772    -17.249514    -8.832883    -1.098406    3.210455    -8.051785    -8.362679    1.266315    14.728648    1.636660    -8.292565    -7.900258    -12.640689    0.003505    -1.232241    -0.003895    -8.052940    4.024117    -8.438829    1.874495    4.109162    -2.794531    2.202318    -6.456559    -11.709412    -2.253204    -0.374429    2.438219    
-4.253901    83.968124    102.490707    -2.126998    -3.552786    -169.228470    -3.166005    -12.670726    -0.341714    0.967526    12.600224    -0.092353    0.764753    1.856996    -3.427746    5.879224    -8.195212    -2.419409    0.089659    21.708494    -3.507838    -41.958862    42.436672    -42.564781    3.597522    -5.156969    -17.577776    18.205730    -4.472973    0.811574    11.008881    23.293503    -5.987070    34.495964    44.292931    39.282272    -6.458579    -10.086374    17.863123    -17.263460    -8.913581    -1.139347    3.204967    -8.091143    -8.410636    1.269721    14.794678    1.650577    -8.298667    -7.909008    -12.674800    0.003545    -1.244342    -0.003940    -8.040222    4.026079    -8.451113    1.872498    4.159250    -2.797663    2.219803    -6.502066    -11.737402    -2.256216    -0.358786    2.441425    
-4.251437    83.964096    102.490723    -2.125985    -3.542610    -169.161209    -3.156002    -12.673651    -0.314916    0.949026    12.621443    -0.067778    0.781875    1.849052    -3.460890    5.895863    -8.207690    -2.452080    0.081644    21.715990    -3.486484    -42.249214    42.271458    -42.317989    3.595412    -5.311310    -17.528809    18.121571    -4.628273    0.822174    11.041206    23.284824    -6.022368    34.451664    44.381031    39.271481    -6.480171    -10.183969    17.926041    -17.276129    -8.998479    -1.178973    3.196509    -8.127743    -8.451118    1.272494    14.852657    1.657795    -8.303603    -7.916499    -12.706884    0.004714    -1.255492    -0.005238    -8.033901    4.024200    -8.457906    1.872693    4.213033    -2.800426    2.233126    -6.548743    -11.771809    -2.257593    -0.345578    2.442871    
-4.250477    83.960571    102.490448    -2.128357    -3.535310    -169.095840    -3.148336    -12.676731    -0.289653    0.930695    12.637068    -0.042562    0.796435    1.842528    -3.493475    5.912172    -8.218946    -2.483943    0.070555    21.727694    -3.461048    -42.553352    42.092529    -42.063728    3.587157    -5.475464    -17.471037    18.033686    -4.795601    0.827001    11.068962    23.278589    -6.059610    34.401272    44.482410    39.263111    -6.505344    -10.286839    17.998631    -17.287367    -9.087779    -1.217009    3.185450    -8.161042    -8.482943    1.274659    14.901917    1.657743    -8.307419    -7.922710    -12.736815    0.007234    -1.266309    -0.008038    -8.033831    4.018165    -8.459821    1.874838    4.270810    -2.802288    2.242094    -6.596399    -11.811954    -2.257061    -0.335076    2.442259    
-4.250983    83.957489    102.489761    -2.134049    -3.530851    -169.032440    -3.142797    -12.680541    -0.265379    0.911872    12.648082    -0.017369    0.809832    1.837330    -3.525143    5.927205    -8.229528    -2.515017    0.057217    21.743502    -3.431127    -42.878407    41.893654    -41.798729    3.571924    -5.646507    -17.401134    17.946125    -4.972285    0.825374    11.092977    23.273766    -6.099092    34.345806    44.597694    39.255974    -6.533832    -10.396146    18.080860    -17.296967    -9.182646    -1.253633    3.171975    -8.191027    -8.505490    1.276187    14.942684    1.649956    -8.310035    -7.927869    -12.764454    0.011118    -1.276457    -0.012353    -8.039850    4.007598    -8.457605    1.878624    4.333421    -2.802551    2.246310    -6.645073    -11.857117    -2.253746    -0.327769    2.438648    
-4.252908    83.954796    102.488670    -2.142947    -3.529172    -168.970932    -3.139003    -12.685456    -0.242490    0.891692    12.655409    0.008223    0.823095    1.832170    -3.555709    5.940172    -8.238530    -2.545416    0.041704    21.763094    -3.395858    -43.221584    41.677437    -41.523544    3.552255    -5.828731    -17.318495    17.859625    -5.161702    0.820711    11.114184    23.270060    -6.141522    34.285473    44.727222    39.249573    -6.565163    -10.513524    18.172913    -17.304859    -9.284797    -1.288980    3.156454    -8.217966    -8.518814    1.276530    14.975306    1.635092    -8.311134    -7.932042    -12.790090    0.016433    -1.285795    -0.018259    -8.051758    3.991821    -8.451953    1.883732    4.402276    -2.800267    2.245641    -6.695116    -11.907040    -2.247068    -0.323986    2.431410    
-4.256172    83.952499    102.487091    -2.154829    -3.530417    -168.912201    -3.136619    -12.692348    -0.219976    0.869848    12.660261    0.032339    0.836938    1.827186    -3.584406    5.950564    -8.246498    -2.574557    0.024162    21.785982    -3.355232    -43.585751    41.439674    -41.237217    3.529006    -6.018198    -17.220648    17.771868    -5.359961    0.812140    11.133387    23.266434    -6.186102    34.222801    44.869549    39.241886    -6.598691    -10.638897    18.272833    -17.310871    -9.394407    -1.322474    3.139204    -8.241777    -8.522457    1.275704    14.999758    1.613818    -8.310929    -7.935278    -12.813791    0.023306    -1.294972    -0.025896    -8.069139    3.970252    -8.443594    1.889695    4.477591    -2.795343    2.240325    -6.746246    -11.960083    -2.236921    -0.323647    2.420430    
-4.260701    83.950493    102.484985    -2.169536    -3.534573    -168.856552    -3.135131    -12.701622    -0.199354    0.845284    12.663596    0.056296    0.851858    1.821228    -3.610823    5.957970    -8.252960    -2.602200    0.003764    21.811481    -3.308144    -43.972309    41.178452    -40.937740    3.504008    -6.217924    -17.105661    17.676195    -5.569836    0.800041    11.151654    23.262230    -6.233181    34.159237    45.024109    39.231670    -6.633702    -10.773469    18.379564    -17.315186    -9.512883    -1.353996    3.120505    -8.262903    -8.516462    1.273376    15.016875    1.587251    -8.309155    -7.937949    -12.836017    0.031696    -1.303842    -0.035218    -8.091795    3.942219    -8.432333    1.896285    4.560473    -2.787001    2.230828    -6.799116    -12.016706    -2.223436    -0.326833    2.405850    
